<mxfile host="app.diagrams.net" modified="2023-09-23T08:23:46.652Z" agent="Mozilla/5.0 (Windows NT 10.0; Win64; x64) AppleWebKit/537.36 (KHTML, like Gecko) Chrome/116.0.0.0 Safari/537.36" etag="qwRSP7FEzq90RyXhwWuT" version="21.8.1" type="device">
  <diagram name="Page-1" id="e56a1550-8fbb-45ad-956c-1786394a9013">
    <mxGraphModel dx="792" dy="1100" grid="1" gridSize="10" guides="1" tooltips="1" connect="1" arrows="1" fold="1" page="1" pageScale="1" pageWidth="1169" pageHeight="827" background="none" math="0" shadow="0">
      <root>
        <mxCell id="0" />
        <mxCell id="1" parent="0" />
        <mxCell id="RQAQ_BANFdbWzdDZguG7-1" value="Жанр музыки" style="swimlane;whiteSpace=wrap;html=1;" parent="1" vertex="1">
          <mxGeometry x="160" y="140" width="120" height="100" as="geometry" />
        </mxCell>
        <mxCell id="RQAQ_BANFdbWzdDZguG7-11" style="edgeStyle=orthogonalEdgeStyle;rounded=0;orthogonalLoop=1;jettySize=auto;html=1;exitX=1;exitY=0.5;exitDx=0;exitDy=0;entryX=0;entryY=0.5;entryDx=0;entryDy=0;" parent="1" source="RQAQ_BANFdbWzdDZguG7-5" target="RQAQ_BANFdbWzdDZguG7-9" edge="1">
          <mxGeometry relative="1" as="geometry" />
        </mxCell>
        <mxCell id="RQAQ_BANFdbWzdDZguG7-5" value="ID" style="rounded=0;whiteSpace=wrap;html=1;" parent="1" vertex="1">
          <mxGeometry x="160" y="170" width="120" height="30" as="geometry" />
        </mxCell>
        <mxCell id="RQAQ_BANFdbWzdDZguG7-6" value="Название" style="rounded=0;whiteSpace=wrap;html=1;" parent="1" vertex="1">
          <mxGeometry x="160" y="200" width="120" height="30" as="geometry" />
        </mxCell>
        <mxCell id="RQAQ_BANFdbWzdDZguG7-7" value="Исполнитель" style="swimlane;whiteSpace=wrap;html=1;" parent="1" vertex="1">
          <mxGeometry x="320" y="200" width="120" height="140" as="geometry" />
        </mxCell>
        <mxCell id="RQAQ_BANFdbWzdDZguG7-10" value="Имя" style="rounded=0;whiteSpace=wrap;html=1;" parent="RQAQ_BANFdbWzdDZguG7-7" vertex="1">
          <mxGeometry y="90" width="120" height="30" as="geometry" />
        </mxCell>
        <mxCell id="RQAQ_BANFdbWzdDZguG7-16" style="edgeStyle=orthogonalEdgeStyle;rounded=0;orthogonalLoop=1;jettySize=auto;html=1;exitX=1;exitY=0.5;exitDx=0;exitDy=0;entryX=0;entryY=0.5;entryDx=0;entryDy=0;" parent="1" source="RQAQ_BANFdbWzdDZguG7-8" target="RQAQ_BANFdbWzdDZguG7-15" edge="1">
          <mxGeometry relative="1" as="geometry" />
        </mxCell>
        <mxCell id="RQAQ_BANFdbWzdDZguG7-8" value="ID" style="rounded=0;whiteSpace=wrap;html=1;" parent="1" vertex="1">
          <mxGeometry x="320" y="230" width="120" height="30" as="geometry" />
        </mxCell>
        <mxCell id="RQAQ_BANFdbWzdDZguG7-9" value="ID жанр" style="rounded=0;whiteSpace=wrap;html=1;" parent="1" vertex="1">
          <mxGeometry x="320" y="260" width="120" height="30" as="geometry" />
        </mxCell>
        <mxCell id="RQAQ_BANFdbWzdDZguG7-12" value="Альбом" style="swimlane;whiteSpace=wrap;html=1;" parent="1" vertex="1">
          <mxGeometry x="480" y="280" width="120" height="180" as="geometry" />
        </mxCell>
        <mxCell id="RQAQ_BANFdbWzdDZguG7-13" value="Название" style="rounded=0;whiteSpace=wrap;html=1;" parent="RQAQ_BANFdbWzdDZguG7-12" vertex="1">
          <mxGeometry y="90" width="120" height="30" as="geometry" />
        </mxCell>
        <mxCell id="91vi2gSm3xfv5f-_CKQd-1" value="Год выпуска" style="rounded=0;whiteSpace=wrap;html=1;" vertex="1" parent="RQAQ_BANFdbWzdDZguG7-12">
          <mxGeometry y="120" width="120" height="40" as="geometry" />
        </mxCell>
        <mxCell id="RQAQ_BANFdbWzdDZguG7-21" style="edgeStyle=orthogonalEdgeStyle;rounded=0;orthogonalLoop=1;jettySize=auto;html=1;exitX=1;exitY=0.5;exitDx=0;exitDy=0;entryX=0;entryY=0.5;entryDx=0;entryDy=0;" parent="1" source="RQAQ_BANFdbWzdDZguG7-14" target="RQAQ_BANFdbWzdDZguG7-20" edge="1">
          <mxGeometry relative="1" as="geometry" />
        </mxCell>
        <mxCell id="RQAQ_BANFdbWzdDZguG7-14" value="ID" style="rounded=0;whiteSpace=wrap;html=1;" parent="1" vertex="1">
          <mxGeometry x="480" y="310" width="120" height="30" as="geometry" />
        </mxCell>
        <mxCell id="RQAQ_BANFdbWzdDZguG7-15" value="ID исполнителя" style="rounded=0;whiteSpace=wrap;html=1;" parent="1" vertex="1">
          <mxGeometry x="480" y="340" width="120" height="30" as="geometry" />
        </mxCell>
        <mxCell id="RQAQ_BANFdbWzdDZguG7-17" value="Трек" style="swimlane;whiteSpace=wrap;html=1;" parent="1" vertex="1">
          <mxGeometry x="640" y="355" width="120" height="175" as="geometry" />
        </mxCell>
        <mxCell id="RQAQ_BANFdbWzdDZguG7-18" value="Название" style="rounded=0;whiteSpace=wrap;html=1;" parent="RQAQ_BANFdbWzdDZguG7-17" vertex="1">
          <mxGeometry y="90" width="120" height="30" as="geometry" />
        </mxCell>
        <mxCell id="91vi2gSm3xfv5f-_CKQd-2" value="Длительность" style="rounded=0;whiteSpace=wrap;html=1;" vertex="1" parent="RQAQ_BANFdbWzdDZguG7-17">
          <mxGeometry y="120" width="120" height="40" as="geometry" />
        </mxCell>
        <mxCell id="RQAQ_BANFdbWzdDZguG7-19" value="ID" style="rounded=0;whiteSpace=wrap;html=1;" parent="1" vertex="1">
          <mxGeometry x="640" y="385" width="120" height="30" as="geometry" />
        </mxCell>
        <mxCell id="RQAQ_BANFdbWzdDZguG7-20" value="ID альбома" style="rounded=0;whiteSpace=wrap;html=1;" parent="1" vertex="1">
          <mxGeometry x="640" y="415" width="120" height="30" as="geometry" />
        </mxCell>
      </root>
    </mxGraphModel>
  </diagram>
</mxfile>
